  0
SECTION
  2
HEADER
  9
$ACADVER
  1
AC1009
  0
ENDSEC
  0
SECTION
  2
ENTITIES
  0
POLYLINE
  5
90
  8
Layer_0
  62
0
  70
1
  66
1
  10
0
  20
0
  30
0
  0
VERTEX
  5
90
  8
Layer_0
  10
607.42566
  20
29.407898
  0
VERTEX
  5
91
  8
Layer_0
  10
607.50421
  20
29.410645
  0
VERTEX
  5
92
  8
Layer_0
  10
607.58276
  20
29.420288
  0
VERTEX
  5
93
  8
Layer_0
  10
607.65991
  20
29.435455
  0
VERTEX
  5
94
  8
Layer_0
  10
607.73572
  20
29.456116
  0
VERTEX
  5
95
  8
Layer_0
  10
607.80872
  20
29.483704
  0
VERTEX
  5
96
  8
Layer_0
  10
607.87903
  20
29.516754
  0
VERTEX
  5
97
  8
Layer_0
  10
607.94934
  20
29.555359
  0
VERTEX
  5
98
  8
Layer_0
  10
608.0141
  20
29.598053
  0
VERTEX
  5
99
  8
Layer_0
  10
608.07611
  20
29.647675
  0
VERTEX
  5
9a
  8
Layer_0
  10
608.13397
  20
29.700043
  0
VERTEX
  5
9b
  8
Layer_0
  10
608.18634
  20
29.759308
  0
VERTEX
  5
9c
  8
Layer_0
  10
608.23596
  20
29.82132
  0
VERTEX
  5
9d
  8
Layer_0
  10
608.27869
  20
29.886078
  0
VERTEX
  5
9e
  8
Layer_0
  10
608.31726
  20
29.953613
  0
VERTEX
  5
9f
  8
Layer_0
  10
608.35034
  20
30.025269
  0
VERTEX
  5
a0
  8
Layer_0
  10
608.37787
  20
30.098297
  0
VERTEX
  5
a1
  8
Layer_0
  10
608.39856
  20
30.174072
  0
VERTEX
  5
a2
  8
Layer_0
  10
608.4137
  20
30.251251
  0
VERTEX
  5
a3
  8
Layer_0
  10
608.42334
  20
30.329803
  0
VERTEX
  5
a4
  8
Layer_0
  10
608.42609
  20
30.408356
  0
VERTEX
  5
a5
  8
Layer_0
  10
608.42609
  20
130.28165
  0
VERTEX
  5
a6
  8
Layer_0
  10
608.42334
  20
130.35965
  0
VERTEX
  5
a7
  8
Layer_0
  10
608.4137
  20
130.43866
  0
VERTEX
  5
a8
  8
Layer_0
  10
608.39856
  20
130.51566
  0
VERTEX
  5
a9
  8
Layer_0
  10
608.37787
  20
130.59164
  0
VERTEX
  5
aa
  8
Layer_0
  10
608.35034
  20
130.66467
  0
VERTEX
  5
ab
  8
Layer_0
  10
608.31726
  20
130.73465
  0
VERTEX
  5
ac
  8
Layer_0
  10
608.27869
  20
130.80566
  0
VERTEX
  5
ad
  8
Layer_0
  10
608.23596
  20
130.87067
  0
VERTEX
  5
ae
  8
Layer_0
  10
608.18634
  20
130.93164
  0
VERTEX
  5
af
  8
Layer_0
  10
608.13397
  20
130.98965
  0
VERTEX
  5
b0
  8
Layer_0
  10
608.07611
  20
131.04266
  0
VERTEX
  5
b1
  8
Layer_0
  10
608.0141
  20
131.09164
  0
VERTEX
  5
b2
  8
Layer_0
  10
607.94934
  20
131.13464
  0
VERTEX
  5
b3
  8
Layer_0
  10
607.87903
  20
131.17365
  0
VERTEX
  5
b4
  8
Layer_0
  10
607.80872
  20
131.20667
  0
VERTEX
  5
b5
  8
Layer_0
  10
607.73572
  20
131.23364
  0
VERTEX
  5
b6
  8
Layer_0
  10
607.65991
  20
131.25464
  0
VERTEX
  5
b7
  8
Layer_0
  10
607.58276
  20
131.26965
  0
VERTEX
  5
b8
  8
Layer_0
  10
607.50421
  20
131.27966
  0
VERTEX
  5
b9
  8
Layer_0
  10
607.42566
  20
131.28165
  0
VERTEX
  5
ba
  8
Layer_0
  10
339.58319
  20
131.28165
  0
VERTEX
  5
bb
  8
Layer_0
  10
339.50519
  20
131.27966
  0
VERTEX
  5
bc
  8
Layer_0
  10
339.42621
  20
131.26965
  0
VERTEX
  5
bd
  8
Layer_0
  10
339.35022
  20
131.25464
  0
VERTEX
  5
be
  8
Layer_0
  10
339.27319
  20
131.23364
  0
VERTEX
  5
bf
  8
Layer_0
  10
339.2002
  20
131.20667
  0
VERTEX
  5
c0
  8
Layer_0
  10
339.12817
  20
131.17365
  0
VERTEX
  5
c1
  8
Layer_0
  10
339.06122
  20
131.13464
  0
VERTEX
  5
c2
  8
Layer_0
  10
338.99518
  20
131.09164
  0
VERTEX
  5
c3
  8
Layer_0
  10
338.9342
  20
131.04266
  0
VERTEX
  5
c4
  8
Layer_0
  10
338.87622
  20
130.98965
  0
VERTEX
  5
c5
  8
Layer_0
  10
338.8222
  20
130.93164
  0
VERTEX
  5
c6
  8
Layer_0
  10
338.77417
  20
130.87067
  0
VERTEX
  5
c7
  8
Layer_0
  10
338.73022
  20
130.80566
  0
VERTEX
  5
c8
  8
Layer_0
  10
338.6922
  20
130.73465
  0
VERTEX
  5
c9
  8
Layer_0
  10
338.6582
  20
130.66467
  0
VERTEX
  5
ca
  8
Layer_0
  10
338.63116
  20
130.59164
  0
VERTEX
  5
cb
  8
Layer_0
  10
338.61017
  20
130.51566
  0
VERTEX
  5
cc
  8
Layer_0
  10
338.59521
  20
130.43866
  0
VERTEX
  5
cd
  8
Layer_0
  10
338.58521
  20
130.35965
  0
VERTEX
  5
ce
  8
Layer_0
  10
338.58319
  20
130.28165
  0
VERTEX
  5
cf
  8
Layer_0
  10
338.58319
  20
30.408356
  0
VERTEX
  5
d0
  8
Layer_0
  10
338.58521
  20
30.329803
  0
VERTEX
  5
d1
  8
Layer_0
  10
338.59521
  20
30.251251
  0
VERTEX
  5
d2
  8
Layer_0
  10
338.61017
  20
30.174072
  0
VERTEX
  5
d3
  8
Layer_0
  10
338.63116
  20
30.098297
  0
VERTEX
  5
d4
  8
Layer_0
  10
338.6582
  20
30.025269
  0
VERTEX
  5
d5
  8
Layer_0
  10
338.6922
  20
29.953613
  0
VERTEX
  5
d6
  8
Layer_0
  10
338.73022
  20
29.886078
  0
VERTEX
  5
d7
  8
Layer_0
  10
338.77417
  20
29.82132
  0
VERTEX
  5
d8
  8
Layer_0
  10
338.8222
  20
29.759308
  0
VERTEX
  5
d9
  8
Layer_0
  10
338.87622
  20
29.700043
  0
VERTEX
  5
da
  8
Layer_0
  10
338.9342
  20
29.647675
  0
VERTEX
  5
db
  8
Layer_0
  10
338.99518
  20
29.598053
  0
VERTEX
  5
dc
  8
Layer_0
  10
339.06122
  20
29.555359
  0
VERTEX
  5
dd
  8
Layer_0
  10
339.12817
  20
29.516754
  0
VERTEX
  5
de
  8
Layer_0
  10
339.2002
  20
29.483704
  0
VERTEX
  5
df
  8
Layer_0
  10
339.27319
  20
29.456116
  0
VERTEX
  5
e0
  8
Layer_0
  10
339.35022
  20
29.435455
  0
VERTEX
  5
e1
  8
Layer_0
  10
339.42621
  20
29.420288
  0
VERTEX
  5
e2
  8
Layer_0
  10
339.50519
  20
29.410645
  0
VERTEX
  5
e3
  8
Layer_0
  10
339.58319
  20
29.407898
  0
VERTEX
  5
e4
  8
Layer_0
  10
473.50443
  20
18.941223
  0
VERTEX
  5
e5
  8
Layer_0
  10
607.42566
  20
29.407898
  0
SEQEND
  0
POLYLINE
  5
e7
  8
Layer_0
  62
0
  70
1
  66
1
  10
0
  20
0
  30
0
  0
VERTEX
  5
e7
  8
Layer_0
  10
342.74219
  20
34.953125
  0
VERTEX
  5
e8
  8
Layer_0
  10
342.43521
  20
34.797424
  0
VERTEX
  5
e9
  8
Layer_0
  10
342.1922
  20
34.554871
  0
VERTEX
  5
ea
  8
Layer_0
  10
342.03522
  20
34.247589
  0
VERTEX
  5
eb
  8
Layer_0
  10
341.9812
  20
33.907196
  0
VERTEX
  5
ec
  8
Layer_0
  10
342.03522
  20
33.568207
  0
VERTEX
  5
ed
  8
Layer_0
  10
342.1922
  20
33.262299
  0
VERTEX
  5
ee
  8
Layer_0
  10
342.43521
  20
33.018372
  0
VERTEX
  5
ef
  8
Layer_0
  10
342.74219
  20
32.861267
  0
VERTEX
  5
f0
  8
Layer_0
  10
343.08121
  20
32.807526
  0
VERTEX
  5
f1
  8
Layer_0
  10
343.4212
  20
32.861267
  0
VERTEX
  5
f2
  8
Layer_0
  10
343.72922
  20
33.018372
  0
VERTEX
  5
f3
  8
Layer_0
  10
343.97119
  20
33.262299
  0
VERTEX
  5
f4
  8
Layer_0
  10
344.1272
  20
33.568207
  0
VERTEX
  5
f5
  8
Layer_0
  10
344.18219
  20
33.907196
  0
VERTEX
  5
f6
  8
Layer_0
  10
344.1272
  20
34.247589
  0
VERTEX
  5
f7
  8
Layer_0
  10
343.97119
  20
34.554871
  0
VERTEX
  5
f8
  8
Layer_0
  10
343.72922
  20
34.797424
  0
VERTEX
  5
f9
  8
Layer_0
  10
343.4212
  20
34.953125
  0
VERTEX
  5
fa
  8
Layer_0
  10
343.08121
  20
35.00827
  0
VERTEX
  5
fb
  8
Layer_0
  10
342.74219
  20
34.953125
  0
SEQEND
  0
POLYLINE
  5
fd
  8
Layer_0
  62
0
  70
1
  66
1
  10
0
  20
0
  30
0
  0
VERTEX
  5
fd
  8
Layer_0
  10
428.69119
  20
28.223145
  0
VERTEX
  5
fe
  8
Layer_0
  10
428.38422
  20
28.067444
  0
VERTEX
  5
ff
  8
Layer_0
  10
428.1402
  20
27.82489
  0
VERTEX
  5
100
  8
Layer_0
  10
427.98419
  20
27.517609
  0
VERTEX
  5
101
  8
Layer_0
  10
427.93121
  20
27.177216
  0
VERTEX
  5
102
  8
Layer_0
  10
427.98419
  20
26.838226
  0
VERTEX
  5
103
  8
Layer_0
  10
428.1402
  20
26.532318
  0
VERTEX
  5
104
  8
Layer_0
  10
428.38422
  20
26.288391
  0
VERTEX
  5
105
  8
Layer_0
  10
428.69119
  20
26.131287
  0
VERTEX
  5
106
  8
Layer_0
  10
429.03021
  20
26.077545
  0
VERTEX
  5
107
  8
Layer_0
  10
429.37122
  20
26.131287
  0
VERTEX
  5
108
  8
Layer_0
  10
429.67621
  20
26.288391
  0
VERTEX
  5
109
  8
Layer_0
  10
429.9202
  20
26.532318
  0
VERTEX
  5
10a
  8
Layer_0
  10
430.07617
  20
26.838226
  0
VERTEX
  5
10b
  8
Layer_0
  10
430.13019
  20
27.177216
  0
VERTEX
  5
10c
  8
Layer_0
  10
430.07617
  20
27.517609
  0
VERTEX
  5
10d
  8
Layer_0
  10
429.9202
  20
27.82489
  0
VERTEX
  5
10e
  8
Layer_0
  10
429.67621
  20
28.067444
  0
VERTEX
  5
10f
  8
Layer_0
  10
429.37122
  20
28.223145
  0
VERTEX
  5
110
  8
Layer_0
  10
429.03021
  20
28.27829
  0
VERTEX
  5
111
  8
Layer_0
  10
428.69119
  20
28.223145
  0
SEQEND
  0
POLYLINE
  5
113
  8
Layer_0
  62
0
  70
1
  66
1
  10
0
  20
0
  30
0
  0
VERTEX
  5
113
  8
Layer_0
  10
517.63818
  20
28.223145
  0
VERTEX
  5
114
  8
Layer_0
  10
517.3324
  20
28.067444
  0
VERTEX
  5
115
  8
Layer_0
  10
517.08826
  20
27.82489
  0
VERTEX
  5
116
  8
Layer_0
  10
516.93268
  20
27.517609
  0
VERTEX
  5
117
  8
Layer_0
  10
516.87909
  20
27.177216
  0
VERTEX
  5
118
  8
Layer_0
  10
516.93268
  20
26.838226
  0
VERTEX
  5
119
  8
Layer_0
  10
517.08826
  20
26.532318
  0
VERTEX
  5
11a
  8
Layer_0
  10
517.3324
  20
26.288391
  0
VERTEX
  5
11b
  8
Layer_0
  10
517.63818
  20
26.131287
  0
VERTEX
  5
11c
  8
Layer_0
  10
517.9787
  20
26.077545
  0
VERTEX
  5
11d
  8
Layer_0
  10
518.31909
  20
26.131287
  0
VERTEX
  5
11e
  8
Layer_0
  10
518.625
  20
26.288391
  0
VERTEX
  5
11f
  8
Layer_0
  10
518.86871
  20
26.532318
  0
VERTEX
  5
120
  8
Layer_0
  10
519.02466
  20
26.838226
  0
VERTEX
  5
121
  8
Layer_0
  10
519.07831
  20
27.177216
  0
VERTEX
  5
122
  8
Layer_0
  10
519.02466
  20
27.517609
  0
VERTEX
  5
123
  8
Layer_0
  10
518.86871
  20
27.82489
  0
VERTEX
  5
124
  8
Layer_0
  10
518.625
  20
28.067444
  0
VERTEX
  5
125
  8
Layer_0
  10
518.31909
  20
28.223145
  0
VERTEX
  5
126
  8
Layer_0
  10
517.9787
  20
28.27829
  0
VERTEX
  5
127
  8
Layer_0
  10
517.63818
  20
28.223145
  0
SEQEND
  0
POLYLINE
  5
129
  8
Layer_0
  62
0
  70
1
  66
1
  10
0
  20
0
  30
0
  0
VERTEX
  5
129
  8
Layer_0
  10
603.58545
  20
34.953125
  0
VERTEX
  5
12a
  8
Layer_0
  10
603.27814
  20
34.797424
  0
VERTEX
  5
12b
  8
Layer_0
  10
603.03558
  20
34.554871
  0
VERTEX
  5
12c
  8
Layer_0
  10
602.87848
  20
34.247589
  0
VERTEX
  5
12d
  8
Layer_0
  10
602.82477
  20
33.907196
  0
VERTEX
  5
12e
  8
Layer_0
  10
602.87848
  20
33.568207
  0
VERTEX
  5
12f
  8
Layer_0
  10
603.03558
  20
33.262299
  0
VERTEX
  5
130
  8
Layer_0
  10
603.27814
  20
33.018372
  0
VERTEX
  5
131
  8
Layer_0
  10
603.58545
  20
32.861267
  0
VERTEX
  5
132
  8
Layer_0
  10
603.92444
  20
32.807526
  0
VERTEX
  5
133
  8
Layer_0
  10
604.26483
  20
32.861267
  0
VERTEX
  5
134
  8
Layer_0
  10
604.57214
  20
33.018372
  0
VERTEX
  5
135
  8
Layer_0
  10
604.81464
  20
33.262299
  0
VERTEX
  5
136
  8
Layer_0
  10
604.97174
  20
33.568207
  0
VERTEX
  5
137
  8
Layer_0
  10
605.02411
  20
33.907196
  0
VERTEX
  5
138
  8
Layer_0
  10
604.97174
  20
34.247589
  0
VERTEX
  5
139
  8
Layer_0
  10
604.81464
  20
34.554871
  0
VERTEX
  5
13a
  8
Layer_0
  10
604.57214
  20
34.797424
  0
VERTEX
  5
13b
  8
Layer_0
  10
604.26483
  20
34.953125
  0
VERTEX
  5
13c
  8
Layer_0
  10
603.92444
  20
35.00827
  0
VERTEX
  5
13d
  8
Layer_0
  10
603.58545
  20
34.953125
  0
SEQEND
  0
POLYLINE
  5
13f
  8
Layer_0
  62
0
  70
1
  66
1
  10
0
  20
0
  30
0
  0
VERTEX
  5
13f
  8
Layer_0
  10
429.75818
  20
48.911255
  0
VERTEX
  5
140
  8
Layer_0
  10
430.20721
  20
52.10965
  0
VERTEX
  5
141
  8
Layer_0
  10
436.89221
  20
51.171265
  0
VERTEX
  5
142
  8
Layer_0
  10
436.44119
  20
47.971466
  0
VERTEX
  5
143
  8
Layer_0
  10
437.95319
  20
47.759247
  0
VERTEX
  5
144
  8
Layer_0
  10
438.6062
  20
52.414246
  0
VERTEX
  5
145
  8
Layer_0
  10
452.46918
  20
50.465668
  0
VERTEX
  5
146
  8
Layer_0
  10
451.81619
  20
45.812042
  0
VERTEX
  5
147
  8
Layer_0
  10
453.32617
  20
45.599854
  0
VERTEX
  5
148
  8
Layer_0
  10
453.77618
  20
48.798248
  0
VERTEX
  5
149
  8
Layer_0
  10
460.4592
  20
47.858459
  0
VERTEX
  5
14a
  8
Layer_0
  10
460.01019
  20
44.660065
  0
VERTEX
  5
14b
  8
Layer_0
  10
460.82721
  20
44.54425
  0
VERTEX
  5
14c
  8
Layer_0
  10
460.43719
  20
41.773041
  0
VERTEX
  5
14d
  8
Layer_0
  10
459.62018
  20
41.88736
  0
VERTEX
  5
14e
  8
Layer_0
  10
458.74921
  20
35.677979
  0
VERTEX
  5
14f
  8
Layer_0
  10
457.04019
  20
35.917755
  0
VERTEX
  5
150
  8
Layer_0
  10
456.87219
  20
34.729889
  0
VERTEX
  5
151
  8
Layer_0
  10
453.60519
  20
35.188751
  0
VERTEX
  5
152
  8
Layer_0
  10
453.77118
  20
36.377991
  0
VERTEX
  5
153
  8
Layer_0
  10
452.06421
  20
36.617798
  0
VERTEX
  5
154
  8
Layer_0
  10
452.68619
  20
41.044067
  0
VERTEX
  5
155
  8
Layer_0
  10
451.1752
  20
41.256256
  0
VERTEX
  5
156
  8
Layer_0
  10
450.52222
  20
36.601288
  0
VERTEX
  5
157
  8
Layer_0
  10
436.6582
  20
38.551178
  0
VERTEX
  5
158
  8
Layer_0
  10
437.31219
  20
43.204865
  0
VERTEX
  5
159
  8
Layer_0
  10
435.80219
  20
43.417053
  0
VERTEX
  5
15a
  8
Layer_0
  10
435.1792
  20
38.990784
  0
VERTEX
  5
15b
  8
Layer_0
  10
433.4722
  20
39.23056
  0
VERTEX
  5
15c
  8
Layer_0
  10
433.30518
  20
38.041321
  0
VERTEX
  5
15d
  8
Layer_0
  10
430.03619
  20
38.501587
  0
VERTEX
  5
15e
  8
Layer_0
  10
430.20319
  20
39.689453
  0
VERTEX
  5
15f
  8
Layer_0
  10
428.49518
  20
39.929169
  0
VERTEX
  5
160
  8
Layer_0
  10
429.36819
  20
46.138641
  0
VERTEX
  5
161
  8
Layer_0
  10
428.55121
  20
46.253052
  0
VERTEX
  5
162
  8
Layer_0
  10
428.94119
  20
49.027069
  0
VERTEX
  5
163
  8
Layer_0
  10
429.75818
  20
48.911255
  0
SEQEND
  0
POLYLINE
  5
165
  8
Layer_0
  62
0
  70
1
  66
1
  10
0
  20
0
  30
0
  0
VERTEX
  5
165
  8
Layer_0
  10
475.04718
  20
40.30545
  0
VERTEX
  5
166
  8
Layer_0
  10
474.6572
  20
43.078064
  0
VERTEX
  5
167
  8
Layer_0
  10
475.47418
  20
43.193848
  0
VERTEX
  5
168
  8
Layer_0
  10
474.60217
  20
49.403259
  0
VERTEX
  5
169
  8
Layer_0
  10
476.31018
  20
49.643066
  0
VERTEX
  5
16a
  8
Layer_0
  10
476.1442
  20
50.830841
  0
VERTEX
  5
16b
  8
Layer_0
  10
479.41119
  20
51.289764
  0
VERTEX
  5
16c
  8
Layer_0
  10
479.57819
  20
50.101868
  0
VERTEX
  5
16d
  8
Layer_0
  10
481.2872
  20
50.341644
  0
VERTEX
  5
16e
  8
Layer_0
  10
481.9082
  20
45.915466
  0
VERTEX
  5
16f
  8
Layer_0
  10
483.41919
  20
46.127655
  0
VERTEX
  5
170
  8
Layer_0
  10
482.76419
  20
50.78125
  0
VERTEX
  5
171
  8
Layer_0
  10
496.6282
  20
52.73114
  0
VERTEX
  5
172
  8
Layer_0
  10
497.2832
  20
48.076141
  0
VERTEX
  5
173
  8
Layer_0
  10
498.79221
  20
48.288452
  0
VERTEX
  5
174
  8
Layer_0
  10
498.1702
  20
52.714661
  0
VERTEX
  5
175
  8
Layer_0
  10
499.8782
  20
52.954468
  0
VERTEX
  5
176
  8
Layer_0
  10
499.71118
  20
54.142242
  0
VERTEX
  5
177
  8
Layer_0
  10
502.98019
  20
54.602539
  0
VERTEX
  5
178
  8
Layer_0
  10
503.14719
  20
53.413361
  0
VERTEX
  5
179
  8
Layer_0
  10
504.85419
  20
53.653168
  0
VERTEX
  5
17a
  8
Layer_0
  10
505.72821
  20
47.445068
  0
VERTEX
  5
17b
  8
Layer_0
  10
506.5452
  20
47.559448
  0
VERTEX
  5
17c
  8
Layer_0
  10
506.9332
  20
44.786865
  0
VERTEX
  5
17d
  8
Layer_0
  10
506.11819
  20
44.672455
  0
VERTEX
  5
17e
  8
Layer_0
  10
506.5672
  20
41.47406
  0
VERTEX
  5
17f
  8
Layer_0
  10
499.8822
  20
40.534149
  0
VERTEX
  5
180
  8
Layer_0
  10
499.4332
  20
43.732666
  0
VERTEX
  5
181
  8
Layer_0
  10
497.92218
  20
43.520355
  0
VERTEX
  5
182
  8
Layer_0
  10
498.57721
  20
38.86676
  0
VERTEX
  5
183
  8
Layer_0
  10
484.7132
  20
36.918213
  0
VERTEX
  5
184
  8
Layer_0
  10
484.0592
  20
41.571869
  0
VERTEX
  5
185
  8
Layer_0
  10
482.54919
  20
41.35965
  0
VERTEX
  5
186
  8
Layer_0
  10
482.99921
  20
38.161194
  0
VERTEX
  5
187
  8
Layer_0
  10
476.3132
  20
37.221375
  0
VERTEX
  5
188
  8
Layer_0
  10
475.8642
  20
40.421143
  0
VERTEX
  5
189
  8
Layer_0
  10
475.04718
  20
40.30545
  0
SEQEND
  0
POLYLINE
  5
18b
  8
Layer_0
  62
0
  70
1
  66
1
  10
0
  20
0
  30
0
  0
VERTEX
  5
18b
  8
Layer_0
  10
407.95221
  20
56.723358
  0
VERTEX
  5
18c
  8
Layer_0
  10
406.00317
  20
42.858948
  0
VERTEX
  5
18d
  8
Layer_0
  10
419.86621
  20
40.91037
  0
VERTEX
  5
18e
  8
Layer_0
  10
421.81619
  20
54.773468
  0
VERTEX
  5
18f
  8
Layer_0
  10
407.95221
  20
56.723358
  0
SEQEND
  0
POLYLINE
  5
191
  8
Layer_0
  62
0
  70
1
  66
1
  10
0
  20
0
  30
0
  0
VERTEX
  5
191
  8
Layer_0
  10
529.64221
  20
57.369659
  0
VERTEX
  5
192
  8
Layer_0
  10
531.58948
  20
43.505249
  0
VERTEX
  5
193
  8
Layer_0
  10
517.72638
  20
41.558044
  0
VERTEX
  5
194
  8
Layer_0
  10
515.77771
  20
55.421143
  0
VERTEX
  5
195
  8
Layer_0
  10
529.64221
  20
57.369659
  0
SEQEND
  0
POLYLINE
  5
197
  8
Layer_0
  62
0
  70
1
  66
1
  10
0
  20
0
  30
0
  0
VERTEX
  5
197
  8
Layer_0
  10
386.72919
  20
59.704041
  0
VERTEX
  5
198
  8
Layer_0
  10
384.78021
  20
45.842346
  0
VERTEX
  5
199
  8
Layer_0
  10
398.64319
  20
43.892456
  0
VERTEX
  5
19a
  8
Layer_0
  10
400.5932
  20
57.756866
  0
VERTEX
  5
19b
  8
Layer_0
  10
386.72919
  20
59.704041
  0
SEQEND
  0
POLYLINE
  5
19d
  8
Layer_0
  62
0
  70
1
  66
1
  10
0
  20
0
  30
0
  0
VERTEX
  5
19d
  8
Layer_0
  10
537.00122
  20
58.403168
  0
VERTEX
  5
19e
  8
Layer_0
  10
538.94812
  20
44.540161
  0
VERTEX
  5
19f
  8
Layer_0
  10
552.81262
  20
46.488647
  0
VERTEX
  5
1a0
  8
Layer_0
  10
550.86389
  20
60.353149
  0
VERTEX
  5
1a1
  8
Layer_0
  10
537.00122
  20
58.403168
  0
SEQEND
  0
POLYLINE
  5
1a3
  8
Layer_0
  62
0
  70
1
  66
1
  10
0
  20
0
  30
0
  0
VERTEX
  5
1a3
  8
Layer_0
  10
595.75781
  20
46.605743
  0
VERTEX
  5
1a4
  8
Layer_0
  10
581.7583
  20
46.605743
  0
VERTEX
  5
1a5
  8
Layer_0
  10
581.7583
  20
60.605255
  0
VERTEX
  5
1a6
  8
Layer_0
  10
595.75781
  20
60.605255
  0
VERTEX
  5
1a7
  8
Layer_0
  10
595.75781
  20
46.605743
  0
SEQEND
  0
POLYLINE
  5
1a9
  8
Layer_0
  62
0
  70
1
  66
1
  10
0
  20
0
  30
0
  0
VERTEX
  5
1a9
  8
Layer_0
  10
574.3266
  20
46.605743
  0
VERTEX
  5
1aa
  8
Layer_0
  10
560.32721
  20
46.605743
  0
VERTEX
  5
1ab
  8
Layer_0
  10
560.32721
  20
60.605255
  0
VERTEX
  5
1ac
  8
Layer_0
  10
574.3266
  20
60.605255
  0
VERTEX
  5
1ad
  8
Layer_0
  10
574.3266
  20
46.605743
  0
SEQEND
  0
POLYLINE
  5
1af
  8
Layer_0
  62
0
  70
1
  66
1
  10
0
  20
0
  30
0
  0
VERTEX
  5
1af
  8
Layer_0
  10
377.1582
  20
46.605743
  0
VERTEX
  5
1b0
  8
Layer_0
  10
363.1582
  20
46.605743
  0
VERTEX
  5
1b1
  8
Layer_0
  10
363.1582
  20
60.605255
  0
VERTEX
  5
1b2
  8
Layer_0
  10
377.1582
  20
60.605255
  0
VERTEX
  5
1b3
  8
Layer_0
  10
377.1582
  20
46.605743
  0
SEQEND
  0
POLYLINE
  5
1b5
  8
Layer_0
  62
0
  70
1
  66
1
  10
0
  20
0
  30
0
  0
VERTEX
  5
1b5
  8
Layer_0
  10
358.10822
  20
46.605743
  0
VERTEX
  5
1b6
  8
Layer_0
  10
344.10822
  20
46.605743
  0
VERTEX
  5
1b7
  8
Layer_0
  10
344.10822
  20
60.605255
  0
VERTEX
  5
1b8
  8
Layer_0
  10
358.10822
  20
60.605255
  0
VERTEX
  5
1b9
  8
Layer_0
  10
358.10822
  20
46.605743
  0
SEQEND
  0
POLYLINE
  5
1bb
  8
Layer_0
  62
0
  70
1
  66
1
  10
0
  20
0
  30
0
  0
VERTEX
  5
1bb
  8
Layer_0
  10
486.90219
  20
70.60025
  0
VERTEX
  5
1bc
  8
Layer_0
  10
473.03918
  20
68.65155
  0
VERTEX
  5
1bd
  8
Layer_0
  10
474.98819
  20
54.788544
  0
VERTEX
  5
1be
  8
Layer_0
  10
488.8522
  20
56.737152
  0
VERTEX
  5
1bf
  8
Layer_0
  10
486.90219
  20
70.60025
  0
SEQEND
  0
POLYLINE
  5
1c1
  8
Layer_0
  62
0
  70
1
  66
1
  10
0
  20
0
  30
0
  0
VERTEX
  5
1c1
  8
Layer_0
  10
441.2572
  20
71.278351
  0
VERTEX
  5
1c2
  8
Layer_0
  10
439.3092
  20
57.415161
  0
VERTEX
  5
1c3
  8
Layer_0
  10
453.17218
  20
55.466553
  0
VERTEX
  5
1c4
  8
Layer_0
  10
455.12219
  20
69.331055
  0
VERTEX
  5
1c5
  8
Layer_0
  10
441.2572
  20
71.278351
  0
SEQEND
  0
POLYLINE
  5
1c7
  8
Layer_0
  62
0
  70
1
  66
1
  10
0
  20
0
  30
0
  0
VERTEX
  5
1c7
  8
Layer_0
  10
505.76721
  20
73.251465
  0
VERTEX
  5
1c8
  8
Layer_0
  10
507.71619
  20
59.387146
  0
VERTEX
  5
1c9
  8
Layer_0
  10
493.85321
  20
57.439941
  0
VERTEX
  5
1ca
  8
Layer_0
  10
491.9032
  20
71.304443
  0
VERTEX
  5
1cb
  8
Layer_0
  10
505.76721
  20
73.251465
  0
SEQEND
  0
POLYLINE
  5
1cd
  8
Layer_0
  62
0
  70
1
  66
1
  10
0
  20
0
  30
0
  0
VERTEX
  5
1cd
  8
Layer_0
  10
422.39221
  20
73.929443
  0
VERTEX
  5
1ce
  8
Layer_0
  10
420.44519
  20
60.066467
  0
VERTEX
  5
1cf
  8
Layer_0
  10
434.3082
  20
58.11795
  0
VERTEX
  5
1d0
  8
Layer_0
  10
436.2562
  20
71.982452
  0
VERTEX
  5
1d1
  8
Layer_0
  10
422.39221
  20
73.929443
  0
SEQEND
  0
POLYLINE
  5
1d3
  8
Layer_0
  62
0
  70
1
  66
1
  10
0
  20
0
  30
0
  0
VERTEX
  5
1d3
  8
Layer_0
  10
524.63171
  20
75.902954
  0
VERTEX
  5
1d4
  8
Layer_0
  10
526.58038
  20
62.039856
  0
VERTEX
  5
1d5
  8
Layer_0
  10
512.71729
  20
60.091248
  0
VERTEX
  5
1d6
  8
Layer_0
  10
510.76859
  20
73.954559
  0
VERTEX
  5
1d7
  8
Layer_0
  10
524.63171
  20
75.902954
  0
SEQEND
  0
POLYLINE
  5
1d9
  8
Layer_0
  62
0
  70
1
  66
1
  10
0
  20
0
  30
0
  0
VERTEX
  5
1d9
  8
Layer_0
  10
401.5802
  20
62.717865
  0
VERTEX
  5
1da
  8
Layer_0
  10
415.44421
  20
60.769257
  0
VERTEX
  5
1db
  8
Layer_0
  10
417.39319
  20
74.632141
  0
VERTEX
  5
1dc
  8
Layer_0
  10
403.5282
  20
76.582367
  0
VERTEX
  5
1dd
  8
Layer_0
  10
401.5802
  20
62.717865
  0
SEQEND
  0
POLYLINE
  5
1df
  8
Layer_0
  62
0
  70
1
  66
1
  10
0
  20
0
  30
0
  0
VERTEX
  5
1df
  8
Layer_0
  10
529.63269
  20
76.605652
  0
VERTEX
  5
1e0
  8
Layer_0
  10
543.49719
  20
78.554352
  0
VERTEX
  5
1e1
  8
Layer_0
  10
545.44556
  20
64.691254
  0
VERTEX
  5
1e2
  8
Layer_0
  10
531.58105
  20
62.741272
  0
VERTEX
  5
1e3
  8
Layer_0
  10
529.63269
  20
76.605652
  0
SEQEND
  0
POLYLINE
  5
1e5
  8
Layer_0
  62
0
  70
1
  66
1
  10
0
  20
0
  30
0
  0
VERTEX
  5
1e5
  8
Layer_0
  10
382.71619
  20
65.369354
  0
VERTEX
  5
1e6
  8
Layer_0
  10
396.57919
  20
63.420654
  0
VERTEX
  5
1e7
  8
Layer_0
  10
398.52719
  20
77.283661
  0
VERTEX
  5
1e8
  8
Layer_0
  10
384.66321
  20
79.232452
  0
VERTEX
  5
1e9
  8
Layer_0
  10
382.71619
  20
65.369354
  0
SEQEND
  0
POLYLINE
  5
1eb
  8
Layer_0
  62
0
  70
1
  66
1
  10
0
  20
0
  30
0
  0
VERTEX
  5
1eb
  8
Layer_0
  10
590.9953
  20
65.655762
  0
VERTEX
  5
1ec
  8
Layer_0
  10
576.99438
  20
65.655762
  0
VERTEX
  5
1ed
  8
Layer_0
  10
576.99438
  20
79.655365
  0
VERTEX
  5
1ee
  8
Layer_0
  10
590.9953
  20
79.655365
  0
VERTEX
  5
1ef
  8
Layer_0
  10
590.9953
  20
65.655762
  0
SEQEND
  0
POLYLINE
  5
1f1
  8
Layer_0
  62
0
  70
1
  66
1
  10
0
  20
0
  30
0
  0
VERTEX
  5
1f1
  8
Layer_0
  10
564.79999
  20
65.655762
  0
VERTEX
  5
1f2
  8
Layer_0
  10
550.80078
  20
65.655762
  0
VERTEX
  5
1f3
  8
Layer_0
  10
550.80078
  20
79.655365
  0
VERTEX
  5
1f4
  8
Layer_0
  10
564.79999
  20
79.655365
  0
VERTEX
  5
1f5
  8
Layer_0
  10
564.79999
  20
65.655762
  0
SEQEND
  0
POLYLINE
  5
1f7
  8
Layer_0
  62
0
  70
1
  66
1
  10
0
  20
0
  30
0
  0
VERTEX
  5
1f7
  8
Layer_0
  10
377.1582
  20
65.655762
  0
VERTEX
  5
1f8
  8
Layer_0
  10
363.1582
  20
65.655762
  0
VERTEX
  5
1f9
  8
Layer_0
  10
363.1582
  20
79.655365
  0
VERTEX
  5
1fa
  8
Layer_0
  10
377.1582
  20
79.655365
  0
VERTEX
  5
1fb
  8
Layer_0
  10
377.1582
  20
65.655762
  0
SEQEND
  0
POLYLINE
  5
1fd
  8
Layer_0
  62
0
  70
1
  66
1
  10
0
  20
0
  30
0
  0
VERTEX
  5
1fd
  8
Layer_0
  10
358.10822
  20
65.655762
  0
VERTEX
  5
1fe
  8
Layer_0
  10
344.10822
  20
65.655762
  0
VERTEX
  5
1ff
  8
Layer_0
  10
344.10822
  20
79.655365
  0
VERTEX
  5
200
  8
Layer_0
  10
358.10822
  20
79.655365
  0
VERTEX
  5
201
  8
Layer_0
  10
358.10822
  20
65.655762
  0
SEQEND
  0
POLYLINE
  5
203
  8
Layer_0
  62
0
  70
1
  66
1
  10
0
  20
0
  30
0
  0
VERTEX
  5
203
  8
Layer_0
  10
453.34119
  20
88.817749
  0
VERTEX
  5
204
  8
Layer_0
  10
451.39319
  20
74.953552
  0
VERTEX
  5
205
  8
Layer_0
  10
465.2562
  20
73.006256
  0
VERTEX
  5
206
  8
Layer_0
  10
467.2052
  20
86.869354
  0
VERTEX
  5
207
  8
Layer_0
  10
453.34119
  20
88.817749
  0
SEQEND
  0
POLYLINE
  5
209
  8
Layer_0
  62
0
  70
1
  66
1
  10
0
  20
0
  30
0
  0
VERTEX
  5
209
  8
Layer_0
  10
477.9342
  20
88.578247
  0
VERTEX
  5
20a
  8
Layer_0
  10
491.79718
  20
90.525146
  0
VERTEX
  5
20b
  8
Layer_0
  10
493.74518
  20
76.662048
  0
VERTEX
  5
20c
  8
Layer_0
  10
479.8822
  20
74.713654
  0
VERTEX
  5
20d
  8
Layer_0
  10
477.9342
  20
88.578247
  0
SEQEND
  0
POLYLINE
  5
20f
  8
Layer_0
  62
0
  70
1
  66
1
  10
0
  20
0
  30
0
  0
VERTEX
  5
20f
  8
Layer_0
  10
432.52917
  20
77.60614
  0
VERTEX
  5
210
  8
Layer_0
  10
434.4762
  20
91.469238
  0
VERTEX
  5
211
  8
Layer_0
  10
448.34021
  20
89.520844
  0
VERTEX
  5
212
  8
Layer_0
  10
446.39221
  20
75.656372
  0
VERTEX
  5
213
  8
Layer_0
  10
432.52917
  20
77.60614
  0
SEQEND
  0
POLYLINE
  5
215
  8
Layer_0
  62
0
  70
1
  66
1
  10
0
  20
0
  30
0
  0
VERTEX
  5
215
  8
Layer_0
  10
510.66129
  20
93.176666
  0
VERTEX
  5
216
  8
Layer_0
  10
496.79819
  20
91.227966
  0
VERTEX
  5
217
  8
Layer_0
  10
498.74619
  20
77.365143
  0
VERTEX
  5
218
  8
Layer_0
  10
512.61121
  20
79.313568
  0
VERTEX
  5
219
  8
Layer_0
  10
510.66129
  20
93.176666
  0
SEQEND
  0
POLYLINE
  5
21b
  8
Layer_0
  62
0
  70
1
  66
1
  10
0
  20
0
  30
0
  0
VERTEX
  5
21b
  8
Layer_0
  10
413.66321
  20
80.256165
  0
VERTEX
  5
21c
  8
Layer_0
  10
415.61218
  20
94.120667
  0
VERTEX
  5
21d
  8
Layer_0
  10
429.47519
  20
92.171967
  0
VERTEX
  5
21e
  8
Layer_0
  10
427.5282
  20
78.307465
  0
VERTEX
  5
21f
  8
Layer_0
  10
413.66321
  20
80.256165
  0
SEQEND
  0
POLYLINE
  5
221
  8
Layer_0
  62
0
  70
1
  66
1
  10
0
  20
0
  30
0
  0
VERTEX
  5
221
  8
Layer_0
  10
529.52649
  20
95.829163
  0
VERTEX
  5
222
  8
Layer_0
  10
531.47522
  20
81.965057
  0
VERTEX
  5
223
  8
Layer_0
  10
517.61206
  20
80.016266
  0
VERTEX
  5
224
  8
Layer_0
  10
515.66199
  20
93.879364
  0
VERTEX
  5
225
  8
Layer_0
  10
529.52649
  20
95.829163
  0
SEQEND
  0
POLYLINE
  5
227
  8
Layer_0
  62
0
  70
1
  66
1
  10
0
  20
0
  30
0
  0
VERTEX
  5
227
  8
Layer_0
  10
394.79819
  20
82.907349
  0
VERTEX
  5
228
  8
Layer_0
  10
396.74719
  20
96.771851
  0
VERTEX
  5
229
  8
Layer_0
  10
410.6102
  20
94.823456
  0
VERTEX
  5
22a
  8
Layer_0
  10
408.66321
  20
80.960358
  0
VERTEX
  5
22b
  8
Layer_0
  10
394.79819
  20
82.907349
  0
SEQEND
  0
POLYLINE
  5
22d
  8
Layer_0
  62
0
  70
1
  66
1
  10
0
  20
0
  30
0
  0
VERTEX
  5
22d
  8
Layer_0
  10
534.52747
  20
96.530853
  0
VERTEX
  5
22e
  8
Layer_0
  10
536.47589
  20
82.667755
  0
VERTEX
  5
22f
  8
Layer_0
  10
550.33899
  20
84.61615
  0
VERTEX
  5
230
  8
Layer_0
  10
548.39197
  20
98.479248
  0
VERTEX
  5
231
  8
Layer_0
  10
534.52747
  20
96.530853
  0
SEQEND
  0
POLYLINE
  5
233
  8
Layer_0
  62
0
  70
1
  66
1
  10
0
  20
0
  30
0
  0
VERTEX
  5
233
  8
Layer_0
  10
595.75781
  20
84.70575
  0
VERTEX
  5
234
  8
Layer_0
  10
581.7583
  20
84.70575
  0
VERTEX
  5
235
  8
Layer_0
  10
581.7583
  20
98.705353
  0
VERTEX
  5
236
  8
Layer_0
  10
595.75781
  20
98.705353
  0
VERTEX
  5
237
  8
Layer_0
  10
595.75781
  20
84.70575
  0
SEQEND
  0
POLYLINE
  5
239
  8
Layer_0
  62
0
  70
1
  66
1
  10
0
  20
0
  30
0
  0
VERTEX
  5
239
  8
Layer_0
  10
574.3266
  20
84.70575
  0
VERTEX
  5
23a
  8
Layer_0
  10
560.32721
  20
84.70575
  0
VERTEX
  5
23b
  8
Layer_0
  10
560.32721
  20
98.705353
  0
VERTEX
  5
23c
  8
Layer_0
  10
574.3266
  20
98.705353
  0
VERTEX
  5
23d
  8
Layer_0
  10
574.3266
  20
84.70575
  0
SEQEND
  0
POLYLINE
  5
23f
  8
Layer_0
  62
0
  70
1
  66
1
  10
0
  20
0
  30
0
  0
VERTEX
  5
23f
  8
Layer_0
  10
386.6832
  20
84.70575
  0
VERTEX
  5
240
  8
Layer_0
  10
372.6832
  20
84.70575
  0
VERTEX
  5
241
  8
Layer_0
  10
372.6832
  20
98.705353
  0
VERTEX
  5
242
  8
Layer_0
  10
386.6832
  20
98.705353
  0
VERTEX
  5
243
  8
Layer_0
  10
386.6832
  20
84.70575
  0
SEQEND
  0
POLYLINE
  5
245
  8
Layer_0
  62
0
  70
1
  66
1
  10
0
  20
0
  30
0
  0
VERTEX
  5
245
  8
Layer_0
  10
362.87122
  20
84.70575
  0
VERTEX
  5
246
  8
Layer_0
  10
348.87122
  20
84.70575
  0
VERTEX
  5
247
  8
Layer_0
  10
348.87122
  20
98.705353
  0
VERTEX
  5
248
  8
Layer_0
  10
362.87122
  20
98.705353
  0
VERTEX
  5
249
  8
Layer_0
  10
362.87122
  20
84.70575
  0
SEQEND
  0
POLYLINE
  5
24b
  8
Layer_0
  62
0
  70
1
  66
1
  10
0
  20
0
  30
0
  0
VERTEX
  5
24b
  8
Layer_0
  10
460.7092
  20
107.02036
  0
VERTEX
  5
24c
  8
Layer_0
  10
474.57318
  20
105.07056
  0
VERTEX
  5
24d
  8
Layer_0
  10
472.6232
  20
91.207458
  0
VERTEX
  5
24e
  8
Layer_0
  10
458.76019
  20
93.155853
  0
VERTEX
  5
24f
  8
Layer_0
  10
460.7092
  20
107.02036
  0
SEQEND
  0
POLYLINE
  5
251
  8
Layer_0
  62
0
  70
1
  66
1
  10
0
  20
0
  30
0
  0
VERTEX
  5
251
  8
Layer_0
  10
441.8432
  20
109.67047
  0
VERTEX
  5
252
  8
Layer_0
  10
439.89618
  20
95.807373
  0
VERTEX
  5
253
  8
Layer_0
  10
453.75922
  20
93.858551
  0
VERTEX
  5
254
  8
Layer_0
  10
455.70819
  20
107.72314
  0
VERTEX
  5
255
  8
Layer_0
  10
441.8432
  20
109.67047
  0
SEQEND
  0
POLYLINE
  5
257
  8
Layer_0
  62
0
  70
1
  66
1
  10
0
  20
0
  30
0
  0
VERTEX
  5
257
  8
Layer_0
  10
481.88519
  20
108.36935
  0
VERTEX
  5
258
  8
Layer_0
  10
495.7482
  20
110.31955
  0
VERTEX
  5
259
  8
Layer_0
  10
497.69818
  20
96.455048
  0
VERTEX
  5
25a
  8
Layer_0
  10
483.83319
  20
94.504852
  0
VERTEX
  5
25b
  8
Layer_0
  10
481.88519
  20
108.36935
  0
SEQEND
  0
POLYLINE
  5
25d
  8
Layer_0
  62
0
  70
1
  66
1
  10
0
  20
0
  30
0
  0
VERTEX
  5
25d
  8
Layer_0
  10
421.03119
  20
98.458862
  0
VERTEX
  5
25e
  8
Layer_0
  10
422.97919
  20
112.32156
  0
VERTEX
  5
25f
  8
Layer_0
  10
436.84219
  20
110.37317
  0
VERTEX
  5
260
  8
Layer_0
  10
434.8952
  20
96.510071
  0
VERTEX
  5
261
  8
Layer_0
  10
421.03119
  20
98.458862
  0
SEQEND
  0
POLYLINE
  5
263
  8
Layer_0
  62
0
  70
1
  66
1
  10
0
  20
0
  30
0
  0
VERTEX
  5
263
  8
Layer_0
  10
514.61353
  20
112.96924
  0
VERTEX
  5
264
  8
Layer_0
  10
516.56189
  20
99.10614
  0
VERTEX
  5
265
  8
Layer_0
  10
502.69919
  20
97.157745
  0
VERTEX
  5
266
  8
Layer_0
  10
500.75018
  20
111.02087
  0
VERTEX
  5
267
  8
Layer_0
  10
514.61353
  20
112.96924
  0
SEQEND
  0
POLYLINE
  5
269
  8
Layer_0
  62
0
  70
1
  66
1
  10
0
  20
0
  30
0
  0
VERTEX
  5
269
  8
Layer_0
  10
402.16718
  20
101.10995
  0
VERTEX
  5
26a
  8
Layer_0
  10
404.1142
  20
114.97305
  0
VERTEX
  5
26b
  8
Layer_0
  10
417.97821
  20
113.02466
  0
VERTEX
  5
26c
  8
Layer_0
  10
416.03021
  20
99.160156
  0
VERTEX
  5
26d
  8
Layer_0
  10
402.16718
  20
101.10995
  0
SEQEND
  0
POLYLINE
  5
26f
  8
Layer_0
  62
0
  70
1
  66
1
  10
0
  20
0
  30
0
  0
VERTEX
  5
26f
  8
Layer_0
  10
533.47717
  20
115.62076
  0
VERTEX
  5
270
  8
Layer_0
  10
519.61414
  20
113.67236
  0
VERTEX
  5
271
  8
Layer_0
  10
521.56287
  20
99.809265
  0
VERTEX
  5
272
  8
Layer_0
  10
535.42737
  20
101.75626
  0
VERTEX
  5
273
  8
Layer_0
  10
533.47717
  20
115.62076
  0
SEQEND
  0
POLYLINE
  5
275
  8
Layer_0
  62
0
  70
1
  66
1
  10
0
  20
0
  30
0
  0
VERTEX
  5
275
  8
Layer_0
  10
538.47821
  20
116.32346
  0
VERTEX
  5
276
  8
Layer_0
  10
552.34271
  20
118.27225
  0
VERTEX
  5
277
  8
Layer_0
  10
554.29108
  20
104.40915
  0
VERTEX
  5
278
  8
Layer_0
  10
540.42798
  20
102.45895
  0
VERTEX
  5
279
  8
Layer_0
  10
538.47821
  20
116.32346
  0
SEQEND
  0
POLYLINE
  5
27b
  8
Layer_0
  62
0
  70
1
  66
1
  10
0
  20
0
  30
0
  0
VERTEX
  5
27b
  8
Layer_0
  10
579.08911
  20
103.75714
  0
VERTEX
  5
27c
  8
Layer_0
  10
565.08826
  20
103.75714
  0
VERTEX
  5
27d
  8
Layer_0
  10
565.08826
  20
117.75537
  0
VERTEX
  5
27e
  8
Layer_0
  10
579.08911
  20
117.75537
  0
VERTEX
  5
27f
  8
Layer_0
  10
579.08911
  20
103.75714
  0
SEQEND
  0
POLYLINE
  5
281
  8
Layer_0
  62
0
  70
1
  66
1
  10
0
  20
0
  30
0
  0
VERTEX
  5
281
  8
Layer_0
  10
598.1391
  20
103.75714
  0
VERTEX
  5
282
  8
Layer_0
  10
584.13818
  20
103.75714
  0
VERTEX
  5
283
  8
Layer_0
  10
584.13818
  20
117.75537
  0
VERTEX
  5
284
  8
Layer_0
  10
598.1391
  20
117.75537
  0
VERTEX
  5
285
  8
Layer_0
  10
598.1391
  20
103.75714
  0
SEQEND
  0
POLYLINE
  5
287
  8
Layer_0
  62
0
  70
1
  66
1
  10
0
  20
0
  30
0
  0
VERTEX
  5
287
  8
Layer_0
  10
391.4462
  20
103.75714
  0
VERTEX
  5
288
  8
Layer_0
  10
377.4462
  20
103.75714
  0
VERTEX
  5
289
  8
Layer_0
  10
377.4462
  20
117.75537
  0
VERTEX
  5
28a
  8
Layer_0
  10
391.4462
  20
117.75537
  0
VERTEX
  5
28b
  8
Layer_0
  10
391.4462
  20
103.75714
  0
SEQEND
  0
POLYLINE
  5
28d
  8
Layer_0
  62
0
  70
1
  66
1
  10
0
  20
0
  30
0
  0
VERTEX
  5
28d
  8
Layer_0
  10
365.25317
  20
103.75714
  0
VERTEX
  5
28e
  8
Layer_0
  10
351.2522
  20
103.75714
  0
VERTEX
  5
28f
  8
Layer_0
  10
351.2522
  20
117.75537
  0
VERTEX
  5
290
  8
Layer_0
  10
365.25317
  20
117.75537
  0
VERTEX
  5
291
  8
Layer_0
  10
365.25317
  20
103.75714
  0
SEQEND
  0
POLYLINE
  5
293
  8
Layer_0
  62
0
  70
1
  66
1
  10
0
  20
0
  30
0
  0
VERTEX
  5
293
  8
Layer_0
  10
516.93268
  20
127.12164
  0
VERTEX
  5
294
  8
Layer_0
  10
516.87909
  20
126.78165
  0
VERTEX
  5
295
  8
Layer_0
  10
516.93268
  20
126.44266
  0
VERTEX
  5
296
  8
Layer_0
  10
517.08826
  20
126.13565
  0
VERTEX
  5
297
  8
Layer_0
  10
517.3324
  20
125.89255
  0
VERTEX
  5
298
  8
Layer_0
  10
517.63818
  20
125.73566
  0
VERTEX
  5
299
  8
Layer_0
  10
517.9787
  20
125.68164
  0
VERTEX
  5
29a
  8
Layer_0
  10
518.31909
  20
125.73566
  0
VERTEX
  5
29b
  8
Layer_0
  10
518.625
  20
125.89255
  0
VERTEX
  5
29c
  8
Layer_0
  10
518.86871
  20
126.13565
  0
VERTEX
  5
29d
  8
Layer_0
  10
519.02466
  20
126.44266
  0
VERTEX
  5
29e
  8
Layer_0
  10
519.07831
  20
126.78165
  0
VERTEX
  5
29f
  8
Layer_0
  10
519.02466
  20
127.12164
  0
VERTEX
  5
2a0
  8
Layer_0
  10
518.86871
  20
127.42966
  0
VERTEX
  5
2a1
  8
Layer_0
  10
518.625
  20
127.67166
  0
VERTEX
  5
2a2
  8
Layer_0
  10
518.31909
  20
127.82867
  0
VERTEX
  5
2a3
  8
Layer_0
  10
517.9787
  20
127.88165
  0
VERTEX
  5
2a4
  8
Layer_0
  10
517.63818
  20
127.82867
  0
VERTEX
  5
2a5
  8
Layer_0
  10
517.3324
  20
127.67166
  0
VERTEX
  5
2a6
  8
Layer_0
  10
517.08826
  20
127.42966
  0
VERTEX
  5
2a7
  8
Layer_0
  10
516.93268
  20
127.12164
  0
SEQEND
  0
POLYLINE
  5
2a9
  8
Layer_0
  62
0
  70
1
  66
1
  10
0
  20
0
  30
0
  0
VERTEX
  5
2a9
  8
Layer_0
  10
429.03021
  20
127.88165
  0
VERTEX
  5
2aa
  8
Layer_0
  10
428.69119
  20
127.82867
  0
VERTEX
  5
2ab
  8
Layer_0
  10
428.38422
  20
127.67166
  0
VERTEX
  5
2ac
  8
Layer_0
  10
428.1402
  20
127.42966
  0
VERTEX
  5
2ad
  8
Layer_0
  10
427.98419
  20
127.12164
  0
VERTEX
  5
2ae
  8
Layer_0
  10
427.93121
  20
126.78165
  0
VERTEX
  5
2af
  8
Layer_0
  10
427.98419
  20
126.44266
  0
VERTEX
  5
2b0
  8
Layer_0
  10
428.1402
  20
126.13565
  0
VERTEX
  5
2b1
  8
Layer_0
  10
428.38422
  20
125.89255
  0
VERTEX
  5
2b2
  8
Layer_0
  10
428.69119
  20
125.73566
  0
VERTEX
  5
2b3
  8
Layer_0
  10
429.03021
  20
125.68164
  0
VERTEX
  5
2b4
  8
Layer_0
  10
429.37122
  20
125.73566
  0
VERTEX
  5
2b5
  8
Layer_0
  10
429.67621
  20
125.89255
  0
VERTEX
  5
2b6
  8
Layer_0
  10
429.9202
  20
126.13565
  0
VERTEX
  5
2b7
  8
Layer_0
  10
430.07617
  20
126.44266
  0
VERTEX
  5
2b8
  8
Layer_0
  10
430.13019
  20
126.78165
  0
VERTEX
  5
2b9
  8
Layer_0
  10
430.07617
  20
127.12164
  0
VERTEX
  5
2ba
  8
Layer_0
  10
429.9202
  20
127.42966
  0
VERTEX
  5
2bb
  8
Layer_0
  10
429.67621
  20
127.67166
  0
VERTEX
  5
2bc
  8
Layer_0
  10
429.37122
  20
127.82867
  0
VERTEX
  5
2bd
  8
Layer_0
  10
429.03021
  20
127.88165
  0
SEQEND
  0
POLYLINE
  5
2bf
  8
Layer_0
  62
0
  70
1
  66
1
  10
0
  20
0
  30
0
  0
VERTEX
  5
2bf
  8
Layer_0
  10
344.1272
  20
126.44266
  0
VERTEX
  5
2c0
  8
Layer_0
  10
343.97119
  20
126.13565
  0
VERTEX
  5
2c1
  8
Layer_0
  10
343.72922
  20
125.89255
  0
VERTEX
  5
2c2
  8
Layer_0
  10
343.4212
  20
125.73566
  0
VERTEX
  5
2c3
  8
Layer_0
  10
343.08121
  20
125.68164
  0
VERTEX
  5
2c4
  8
Layer_0
  10
342.74219
  20
125.73566
  0
VERTEX
  5
2c5
  8
Layer_0
  10
342.43521
  20
125.89255
  0
VERTEX
  5
2c6
  8
Layer_0
  10
342.1922
  20
126.13565
  0
VERTEX
  5
2c7
  8
Layer_0
  10
342.03522
  20
126.44266
  0
VERTEX
  5
2c8
  8
Layer_0
  10
341.9812
  20
126.78165
  0
VERTEX
  5
2c9
  8
Layer_0
  10
342.03522
  20
127.12164
  0
VERTEX
  5
2ca
  8
Layer_0
  10
342.1922
  20
127.42966
  0
VERTEX
  5
2cb
  8
Layer_0
  10
342.43521
  20
127.67166
  0
VERTEX
  5
2cc
  8
Layer_0
  10
342.74219
  20
127.82867
  0
VERTEX
  5
2cd
  8
Layer_0
  10
343.08121
  20
127.88165
  0
VERTEX
  5
2ce
  8
Layer_0
  10
343.4212
  20
127.82867
  0
VERTEX
  5
2cf
  8
Layer_0
  10
343.72922
  20
127.67166
  0
VERTEX
  5
2d0
  8
Layer_0
  10
343.97119
  20
127.42966
  0
VERTEX
  5
2d1
  8
Layer_0
  10
344.1272
  20
127.12164
  0
VERTEX
  5
2d2
  8
Layer_0
  10
344.18219
  20
126.78165
  0
VERTEX
  5
2d3
  8
Layer_0
  10
344.1272
  20
126.44266
  0
SEQEND
  0
POLYLINE
  5
2d5
  8
Layer_0
  62
0
  70
1
  66
1
  10
0
  20
0
  30
0
  0
VERTEX
  5
2d5
  8
Layer_0
  10
605.02411
  20
126.78165
  0
VERTEX
  5
2d6
  8
Layer_0
  10
604.97174
  20
127.12164
  0
VERTEX
  5
2d7
  8
Layer_0
  10
604.81464
  20
127.42966
  0
VERTEX
  5
2d8
  8
Layer_0
  10
604.57214
  20
127.67166
  0
VERTEX
  5
2d9
  8
Layer_0
  10
604.26483
  20
127.82867
  0
VERTEX
  5
2da
  8
Layer_0
  10
603.92444
  20
127.88165
  0
VERTEX
  5
2db
  8
Layer_0
  10
603.58545
  20
127.82867
  0
VERTEX
  5
2dc
  8
Layer_0
  10
603.27814
  20
127.67166
  0
VERTEX
  5
2dd
  8
Layer_0
  10
603.03558
  20
127.42966
  0
VERTEX
  5
2de
  8
Layer_0
  10
602.87848
  20
127.12164
  0
VERTEX
  5
2df
  8
Layer_0
  10
602.82477
  20
126.78165
  0
VERTEX
  5
2e0
  8
Layer_0
  10
602.87848
  20
126.44266
  0
VERTEX
  5
2e1
  8
Layer_0
  10
603.03558
  20
126.13565
  0
VERTEX
  5
2e2
  8
Layer_0
  10
603.27814
  20
125.89255
  0
VERTEX
  5
2e3
  8
Layer_0
  10
603.58545
  20
125.73566
  0
VERTEX
  5
2e4
  8
Layer_0
  10
603.92444
  20
125.68164
  0
VERTEX
  5
2e5
  8
Layer_0
  10
604.26483
  20
125.73566
  0
VERTEX
  5
2e6
  8
Layer_0
  10
604.57214
  20
125.89255
  0
VERTEX
  5
2e7
  8
Layer_0
  10
604.81464
  20
126.13565
  0
VERTEX
  5
2e8
  8
Layer_0
  10
604.97174
  20
126.44266
  0
VERTEX
  5
2e9
  8
Layer_0
  10
605.02411
  20
126.78165
  0
SEQEND
  0
ENDSEC
  0
EOF
